<svg width="72" height="72" viewBox="0 0 72 72" fill="none" xmlns="http://www.w3.org/2000/svg">
<g clip-path="url(#clip0)">
<path d="M36 1.5C16.11 1.5 0 17.34 0 36.876C0 52.509 10.314 65.766 24.615 70.44C26.415 70.773 27.075 69.678 27.075 68.739C27.075 67.899 27.045 65.673 27.03 62.724C17.016 64.857 14.904 57.978 14.904 57.978C13.266 53.895 10.899 52.803 10.899 52.803C7.638 50.61 11.151 50.655 11.151 50.655C14.766 50.901 16.665 54.3 16.665 54.3C19.875 59.709 25.092 58.146 27.15 57.243C27.474 54.954 28.401 53.397 29.43 52.512C21.435 51.627 13.032 48.585 13.032 35.031C13.032 31.17 14.427 28.014 16.737 25.539C16.332 24.645 15.117 21.048 17.052 16.176C17.052 16.176 20.067 15.228 26.952 19.803C29.832 19.017 32.892 18.627 35.952 18.609C39.012 18.627 42.072 19.017 44.952 19.803C51.792 15.228 54.807 16.176 54.807 16.176C56.742 21.048 55.527 24.645 55.167 25.539C57.462 28.014 58.857 31.17 58.857 35.031C58.857 48.621 50.442 51.612 42.432 52.482C43.692 53.544 44.862 55.713 44.862 59.028C44.862 63.762 44.817 67.566 44.817 68.715C44.817 69.642 45.447 70.749 47.292 70.395C61.695 65.751 72 52.485 72 36.876C72 17.34 55.881 1.5 36 1.5Z" fill="#212121"/>
<g clip-path="url(#clip1)">
<path d="M36.0703 30.8878C33.211 30.8878 30.8878 33.211 30.8878 36.0703C30.8878 38.9296 33.211 41.2528 36.0703 41.2528C38.9297 41.2528 41.2529 38.9296 41.2529 36.0703C41.2529 33.211 38.9297 30.8878 36.0703 30.8878ZM35.6772 34.5334C35.0338 34.5334 34.4977 35.0695 34.4977 35.7129H32.7821C32.8179 34.1045 34.1046 32.8178 35.6772 32.8178V34.5334Z" fill="#212121"/>
<path d="M51.7966 34.9981C50.0453 32.8178 43.7905 25.7053 36.0703 25.7053C28.3501 25.7053 22.0954 32.8178 20.344 34.9981C19.8437 35.6057 19.8437 36.4992 20.344 37.1426C22.0954 39.3228 28.3501 46.4354 36.0703 46.4354C43.7905 46.4354 50.0453 39.3228 51.7966 37.1426C52.297 36.5349 52.297 35.6414 51.7966 34.9981ZM36.0703 43.576C31.9243 43.576 28.5646 40.2163 28.5646 36.0703C28.5646 31.9243 31.9243 28.5646 36.0703 28.5646C40.2163 28.5646 43.576 31.9243 43.576 36.0703C43.576 40.2163 40.2163 43.576 36.0703 43.576Z" fill="#212121"/>
</g>
</g>
<defs>
<clipPath id="clip0">
<rect width="72" height="72" fill="white"/>
</clipPath>
<clipPath id="clip1">
<rect width="32.2031" height="32.2031" fill="white" transform="translate(19.9688 19.9688)"/>
</clipPath>
</defs>
</svg>
