<svg width="38" height="38" viewBox="0 0 38 38" fill="none" xmlns="http://www.w3.org/2000/svg">
<g clip-path="url(#clip0)">
<path d="M19 38.0001C29.4935 38.0001 38.0001 29.4935 38.0001 19C38.0001 8.50661 29.4935 0 19 0C8.50661 0 0 8.50661 0 19C0 29.4935 8.50661 38.0001 19 38.0001Z" fill="#E79E2D"/>
<path d="M17.1906 20.2367L16.6536 12.2059C16.5528 10.641 16.5035 9.51774 16.5035 8.83612C16.5035 7.90844 16.7469 7.18425 17.232 6.66548C17.7183 6.14439 18.3588 5.88452 19.1515 5.88452C20.1134 5.88452 20.7569 6.21727 21.0803 6.88237C21.4038 7.54811 21.5666 8.50666 21.5666 9.7574C21.5666 10.4955 21.527 11.2455 21.4496 12.0042L20.7284 20.2699C20.6504 21.2543 20.483 22.0082 20.225 22.5342C19.9678 23.0589 19.5427 23.3211 18.9511 23.3211C18.3468 23.3211 17.9283 23.0679 17.6937 22.5584C17.4588 22.0509 17.2905 21.276 17.1906 20.2367ZM19.0516 31.2683C18.37 31.2683 17.7738 31.0487 17.2662 30.6067C16.7574 30.166 16.5035 29.5486 16.5035 28.7544C16.5035 28.0611 16.7469 27.4712 17.232 26.9849C17.7183 26.4986 18.3139 26.2559 19.018 26.2559C19.7225 26.2559 20.3225 26.4986 20.8202 26.9849C21.3177 27.4712 21.5667 28.0613 21.5667 28.7544C21.5667 29.5362 21.3153 30.1507 20.8116 30.5983C20.309 31.0451 19.7225 31.2683 19.0516 31.2683Z" fill="white"/>
</g>
<defs>
<clipPath id="clip0">
<rect width="38" height="38" fill="white"/>
</clipPath>
</defs>
</svg>
