<svg width="38" height="38" viewBox="0 0 38 38" fill="none" xmlns="http://www.w3.org/2000/svg">
<path d="M19 0C8.52298 0 0 8.52298 0 19C0 29.477 8.52298 38 19 38C29.477 38 38 29.477 38 19C38 8.52298 29.477 0 19 0Z" fill="#F44336"/>
<path d="M25.9969 23.7579C26.6159 24.3771 26.6159 25.3776 25.9969 25.9969C25.6881 26.3056 25.2828 26.4608 24.8772 26.4608C24.4719 26.4608 24.0666 26.3056 23.7579 25.9969L19 21.2388L14.2422 25.9969C13.9334 26.3056 13.5281 26.4608 13.1228 26.4608C12.7172 26.4608 12.3119 26.3056 12.0032 25.9969C11.3842 25.3776 11.3842 24.3771 12.0032 23.7579L16.7613 19L12.0032 14.2422C11.3842 13.6229 11.3842 12.6224 12.0032 12.0032C12.6224 11.3842 13.6229 11.3842 14.2422 12.0032L19 16.7613L23.7579 12.0032C24.3771 11.3842 25.3776 11.3842 25.9969 12.0032C26.6159 12.6224 26.6159 13.6229 25.9969 14.2422L21.2388 19L25.9969 23.7579Z" fill="#FAFAFA"/>
</svg>
