<svg width="38" height="38" viewBox="0 0 38 38" fill="none" xmlns="http://www.w3.org/2000/svg">
<path d="M19 0C8.52298 0 0 8.52298 0 19C0 29.477 8.52298 38 19 38C29.477 38 38 29.477 38 19C38 8.52298 29.477 0 19 0Z" fill="#2196F3"/>
<path d="M28.6298 14.9736L18.3381 25.2651C18.0293 25.5739 17.624 25.7293 17.2187 25.7293C16.8134 25.7293 16.4081 25.5739 16.0993 25.2651L10.9536 20.1194C10.3343 19.5004 10.3343 18.4996 10.9536 17.8806C11.5726 17.2614 12.5731 17.2614 13.1923 17.8806L17.2187 21.907L26.3911 12.7349C27.0101 12.1156 28.0106 12.1156 28.6298 12.7349C29.2488 13.3539 29.2488 14.3544 28.6298 14.9736Z" fill="#FAFAFA"/>
</svg>
